HIERARCHY
ROOT Hips
{
	OFFSET -0.179506 -22.333345 2.821913
	CHANNELS 6 Xposition Yposition Zposition Zrotation Yrotation Xrotation 
	JOINT LeftUpLeg
	{
		OFFSET 6.951974 -9.140623 -0.681533
		CHANNELS 3 Zrotation Yrotation Xrotation
		JOINT LeftLeg
		{
			OFFSET 3.427654 -37.519855 -0.449580
			CHANNELS 3 Zrotation Yrotation Xrotation
			JOINT LeftFoot
			{
				OFFSET -1.359570 -39.796059 -4.369333
				CHANNELS 3 Zrotation Yrotation Xrotation
				JOINT LeftToe
				{
					OFFSET 2.635814 -5.579078 11.928840
					CHANNELS 3 Zrotation Yrotation Xrotation
					End Site
					{
						OFFSET 0.000000 0.000000 0.000000
					}
				}
			}
		}
	}
	JOINT RightUpLeg
	{
		OFFSET -6.767048 -9.052170 -0.431982
		CHANNELS 3 Zrotation Yrotation Xrotation
		JOINT RightLeg
		{
			OFFSET -3.829005 -38.256897 -0.885003
			CHANNELS 3 Zrotation Yrotation Xrotation
			JOINT RightFoot
			{
				OFFSET 1.577377 -39.841461 -4.231180
				CHANNELS 3 Zrotation Yrotation Xrotation
				JOINT RightToe
				{
					OFFSET -2.537174 -4.814398 12.334795
					CHANNELS 3 Zrotation Yrotation Xrotation
					End Site
					{
						OFFSET 0.000000 0.000000 0.000000
					}
				}
			}
		}
	}
	JOINT Spine
	{
		OFFSET -0.253288 10.896323 -2.669631
		CHANNELS 3 Zrotation Yrotation Xrotation
		JOINT Spine1
		{
			OFFSET 0.548704 13.518043 0.109247
			CHANNELS 3 Zrotation Yrotation Xrotation
			JOINT Spine2
			{
				OFFSET 0.145701 5.292222 2.542457
				CHANNELS 3 Zrotation Yrotation Xrotation
				JOINT Neck
				{
					OFFSET -0.277840 21.387037 -4.285703
					CHANNELS 3 Zrotation Yrotation Xrotation
					JOINT Head
					{
						OFFSET 0.515184 6.496960 5.134897
						CHANNELS 3 Zrotation Yrotation Xrotation
						End Site
						{
							OFFSET 0.000000 0.000000 0.000000
						}
					}
				}
				JOINT LeftShoulder
				{
					OFFSET 7.884473 12.174932 -3.408961
					CHANNELS 3 Zrotation Yrotation Xrotation
					JOINT LeftArm
					{
						OFFSET 9.097692 3.046888 -0.886815
						CHANNELS 3 Zrotation Yrotation Xrotation
						JOINT LeftForeArm
						{
							OFFSET 25.961220 -1.277207 -2.745643
							CHANNELS 3 Zrotation Yrotation Xrotation
							JOINT LeftHand
							{
								OFFSET 24.923361 0.898606 -0.117091
								CHANNELS 3 Zrotation Yrotation Xrotation
								End Site
								{
									OFFSET 0.000000 0.000000 0.000000
								}
							}
						}
					}
				}
				JOINT RightShoulder
				{
					OFFSET -8.175920 11.883285 -3.861528
					CHANNELS 3 Zrotation Yrotation Xrotation
					JOINT RightArm
					{
						OFFSET -9.601238 3.255117 -0.914307
						CHANNELS 3 Zrotation Yrotation Xrotation
						JOINT RightForeArm
						{
							OFFSET -25.374195 -1.332924 -2.140099
							CHANNELS 3 Zrotation Yrotation Xrotation
							JOINT RightHand
							{
								OFFSET -25.529810 0.777228 -0.555919
								CHANNELS 3 Zrotation Yrotation Xrotation
								End Site
								{
									OFFSET 0.000000 0.000000 0.000000
								}
							}
						}
					}
				}
			}
		}
	}
}
MOTION
Frames: 7
Frame Time: 0.033333
-28.609348 11.086334 94.395859 -173.672524 -0.566068 92.160965 0.157372 2.992618 2.249226 -2.030013 -13.354997 -6.126774 0.378590 16.007720 -6.172854 nan nan nan -2.527364 -5.688727 -0.405574 3.943180 6.888322 -3.960602 3.453502 -13.754437 -3.369837 nan nan nan -0.142436 1.197252 -2.396658 1.089394 -4.148199 1.761594 0.232979 0.779299 -3.038974 -1.062572 -1.693079 14.183171 6.327603 1.322422 4.224947 6.821679 1.349158 -9.408929 -6.283302 -15.254867 -8.630582 10.193695 -1.621871 -2.572419 -28.604638 -11.861884 11.323957 -10.394420 -2.622819 -7.604017 2.708000 7.159556 -13.599672 -10.649584 3.361633 -5.675530 22.273979 4.532263 10.841686 
-28.607063 11.098899 94.397530 -173.644017 -0.550074 92.158854 0.195624 3.002644 2.261756 -2.046980 -13.387266 -6.126688 0.364164 16.020293 -6.142318 nan nan nan -2.512697 -5.721975 -0.383225 3.981254 6.857542 -3.967628 3.489378 -13.759741 -3.364525 nan nan nan -0.162589 1.200958 -2.425299 1.122934 -4.171292 1.809580 0.254864 0.757196 -3.068477 -1.039067 -1.671659 14.182211 6.291736 1.377693 4.237038 6.873206 1.365648 -9.334650 -6.360306 -15.237069 -8.676911 10.187891 -1.648567 -2.614802 -28.526234 -11.753803 11.273231 -10.438078 -2.626960 -7.553893 2.713860 7.171927 -13.630956 -10.600493 3.365603 -5.681905 22.262767 4.519973 10.747155 
-28.611261 11.111693 94.400101 -173.608255 -0.525239 92.150524 0.232432 3.007932 2.279353 -2.038268 -13.465859 -6.139960 0.360428 16.023105 -6.156570 nan nan nan -2.496433 -5.749005 -0.346434 4.005436 6.858818 -3.980778 3.476221 -13.782913 -3.362386 nan nan nan -0.145520 1.211364 -2.456876 1.136083 -4.194850 1.870844 0.272736 0.741271 -3.090325 -0.987684 -1.657733 14.186188 6.235721 1.437702 4.223175 6.877189 1.329810 -9.307121 -6.397586 -15.204333 -8.720129 10.214393 -1.633826 -2.632560 -28.475583 -11.708431 11.279531 -10.495639 -2.615114 -7.546249 2.748791 7.151956 -13.660236 -10.612521 3.350760 -5.654287 22.292137 4.527901 10.686862 
-28.613302 11.117452 94.395653 -173.602615 -0.509777 92.179811 0.261013 3.011757 2.242187 -2.055734 -13.476022 -6.133623 0.361076 16.007927 -6.188000 nan nan nan -2.492473 -5.754028 -0.390395 4.037623 6.866687 -3.961375 3.438566 -13.775919 -3.346291 nan nan nan -0.125920 1.224476 -2.507922 1.128825 -4.189437 1.899855 0.257271 0.746057 -3.082664 -0.959392 -1.659872 14.133780 6.228707 1.405989 4.283424 6.883255 1.310558 -9.307248 -6.380318 -15.216540 -8.732184 10.221896 -1.630906 -2.630219 -28.520682 -11.712011 11.295199 -10.477532 -2.630212 -7.567614 2.759211 7.126791 -13.666312 -10.629346 3.341427 -5.666415 22.331819 4.521143 10.654997 
-28.609303 11.110615 94.392151 -173.602403 -0.519095 92.224949 0.266479 2.991928 2.190941 -2.083099 -13.447381 -6.141605 0.357523 16.004377 -6.141918 nan nan nan -2.487067 -5.737820 -0.485446 4.044901 6.848196 -3.904899 3.406375 -13.788356 -3.343235 nan nan nan -0.149742 1.216330 -2.515252 1.119584 -4.178160 1.870787 0.244585 0.758546 -3.086565 -0.984210 -1.666848 14.095309 6.316188 1.348143 4.350777 6.891542 1.324596 -9.303334 -6.326557 -15.242008 -8.721060 10.208870 -1.660757 -2.602028 -28.741053 -11.724214 11.263249 -10.412222 -2.665825 -7.590009 2.745303 7.140456 -13.647112 -10.665920 3.339235 -5.672986 22.467325 4.480590 10.648712 
-28.609678 11.108745 94.387329 -173.603588 -0.526671 92.242233 0.259413 2.979423 2.169231 -2.091156 -13.443804 -6.129477 0.358026 16.016004 -6.085155 nan nan nan -2.492587 -5.738490 -0.509823 4.042887 6.847681 -3.890978 3.378577 -13.798811 -3.367354 nan nan nan -0.153962 1.217610 -2.515175 1.110040 -4.173686 1.869740 0.243637 0.758069 -3.074643 -1.020173 -1.683448 14.076403 6.358824 1.337646 4.333034 6.883006 1.332059 -9.306718 -6.265360 -15.232705 -8.738792 10.158279 -1.694408 -2.616361 -28.856228 -11.733841 11.221553 -10.406405 -2.693556 -7.612781 2.733079 7.126817 -13.636922 -10.628879 3.389691 -5.670941 22.590987 4.475664 10.612317 
-28.610821 11.123096 94.386177 -173.631973 -0.525398 92.229830 0.263432 3.001698 2.228575 -2.078385 -13.447977 -6.184533 0.357476 16.024147 -6.045036 nan nan nan -2.494296 -5.736413 -0.471751 4.026530 6.881169 -3.923910 3.334323 -13.803594 -3.412874 nan nan nan -0.135017 1.224795 -2.508796 1.097125 -4.162618 1.901000 0.237458 0.751298 -3.075136 -1.038226 -1.685593 14.041540 6.357346 1.335013 4.308608 6.856434 1.359904 -9.316026 -6.201369 -15.199477 -8.757606 10.110932 -1.753676 -2.643439 -28.843311 -11.763915 11.194370 -10.402441 -2.717561 -7.646134 2.711120 7.146952 -13.635832 -10.557422 3.388342 -5.773470 22.608785 4.525706 10.485684 
